<?xml version="1.0" standalone="no"?>
<!DOCTYPE svg PUBLIC "-//W3C//DTD SVG 20010904//EN"
 "http://www.w3.org/TR/2001/REC-SVG-20010904/DTD/svg10.dtd">
<svg version="1.0" xmlns="http://www.w3.org/2000/svg"
 width="570.000000pt" height="570.000000pt" viewBox="0 0 570.000000 570.000000"
 preserveAspectRatio="xMidYMid meet">
<metadata>
Created by potrace 1.11, written by Peter Selinger 2001-2013
</metadata>
<g transform="translate(0.000000,570.000000) scale(0.100000,-0.100000)"
fill="#000000" stroke="none">
<path d="M2580 5595 c-8 -2 -58 -9 -110 -15 -504 -62 -984 -273 -1399 -615
-68 -56 -212 -197 -292 -286 -235 -262 -430 -600 -543 -942 -43 -131 -93 -333
-106 -430 -6 -40 -15 -110 -21 -156 -16 -120 -6 -559 14 -686 78 -471 248
-878 521 -1240 107 -143 312 -360 411 -436 17 -13 35 -29 40 -35 6 -6 46 -38
90 -71 373 -279 802 -456 1270 -525 122 -18 628 -18 750 0 468 69 897 246
1270 525 44 33 85 65 90 71 6 6 24 22 40 35 40 30 176 163 245 238 84 92 101
112 166 198 273 362 443 769 521 1240 20 127 30 566 14 686 -6 46 -15 116 -21
156 -13 97 -63 299 -106 430 -166 502 -490 958 -924 1299 -98 77 -282 195
-402 258 -284 147 -529 226 -893 287 -64 10 -590 23 -625 14z m485 -320 c458
-45 869 -206 1236 -486 332 -253 618 -627 771 -1009 35 -87 86 -239 98 -290
55 -237 80 -425 80 -620 0 -128 -20 -360 -39 -440 -6 -25 -19 -85 -30 -135
-48 -213 -179 -530 -281 -682 -17 -24 -30 -46 -30 -48 0 -2 -30 -46 -67 -97
-89 -125 -205 -259 -302 -351 -115 -107 -305 -257 -327 -257 -10 0 6 285 22
395 8 55 29 154 46 220 27 107 31 136 32 275 1 129 -3 170 -22 247 -31 128
-138 447 -202 603 -12 30 -35 87 -50 125 -75 183 -136 327 -171 403 -21 46
-39 86 -39 88 0 4 -81 177 -84 182 -9 9 -78 -33 -114 -69 -107 -108 -120 -249
-42 -444 16 -38 79 -196 140 -350 l112 -279 -4 -361 c-5 -387 -5 -389 -64
-505 -26 -52 -122 -143 -179 -169 -128 -61 -131 -61 -814 -61 -380 0 -640 4
-660 10 -19 5 -36 8 -38 7 -8 -9 22 -81 59 -142 71 -119 229 -315 382 -473 95
-98 96 -101 38 -95 -62 6 -229 40 -319 63 -254 69 -497 179 -723 328 -171 114
-412 336 -539 497 -34 44 -69 88 -77 98 -8 9 -14 20 -14 23 0 3 -13 23 -28 43
-38 48 -108 168 -154 261 -139 284 -212 530 -244 830 -98 922 331 1806 1119
2307 451 286 984 411 1522 358z"/>
<path d="M2505 5039 c-185 -28 -336 -75 -510 -159 -172 -84 -165 -75 -124
-143 19 -31 37 -57 40 -57 4 0 53 24 110 53 297 153 617 208 924 157 200 -32
335 -77 492 -161 50 -27 95 -49 100 -49 8 0 73 101 73 113 0 11 -142 86 -245
129 -218 91 -415 129 -654 127 -80 -1 -173 -6 -206 -10z"/>
<path d="M2452 4770 c-45 -10 -119 -30 -165 -45 -91 -29 -278 -117 -297 -140
-9 -11 -5 -25 20 -70 17 -30 35 -55 40 -55 5 0 31 13 57 28 75 44 212 100 299
122 320 81 695 30 946 -127 21 -13 42 -23 46 -23 5 0 24 24 42 52 23 38 29 57
23 68 -15 23 -197 111 -298 144 -161 52 -251 65 -450 65 -133 -1 -201 -6 -263
-19z"/>
<path d="M2561 4529 c-75 -9 -144 -29 -256 -71 -74 -28 -195 -93 -195 -105 0
-2 16 -29 36 -58 27 -41 39 -52 52 -47 9 4 50 24 89 44 281 141 602 138 896
-9 l87 -43 36 56 37 57 -24 18 c-39 30 -161 87 -245 114 -149 49 -347 66 -513
44z"/>
<path d="M2100 4076 c-105 -24 -211 -100 -264 -190 -54 -93 -56 -113 -56 -591
l0 -442 43 -39 c23 -21 73 -74 111 -117 38 -42 73 -77 78 -77 4 0 9 235 10
523 l3 522 730 0 730 0 3 -172 c1 -95 4 -173 7 -173 2 0 25 20 50 45 25 24 75
59 111 76 l65 32 -3 161 c-3 149 -5 165 -29 216 -54 115 -160 200 -283 226
-84 18 -1225 18 -1306 0z m229 -152 c29 -37 26 -68 -10 -98 -37 -31 -58 -33
-93 -5 -31 24 -36 81 -9 111 26 29 87 24 112 -8z m625 1 c23 -35 20 -72 -9
-100 -24 -25 -25 -25 -220 -25 -195 0 -196 0 -220 25 -29 28 -32 65 -9 100
l16 25 213 0 213 0 16 -25z"/>
<path d="M2532 3908 c-7 -7 -12 -19 -12 -28 0 -36 20 -40 205 -40 127 0 185 4
193 12 18 18 14 46 -7 58 -29 15 -364 13 -379 -2z"/>
<path d="M1455 3354 c-51 -26 -70 -61 -69 -130 0 -51 5 -67 33 -107 27 -40 47
-54 134 -96 56 -27 114 -53 130 -57 l27 -6 -2 192 -3 193 -45 13 c-60 18 -167
17 -205 -2z"/>
<path d="M3060 2936 c-94 -30 -155 -99 -170 -191 -20 -122 29 -224 132 -276
42 -22 167 -26 215 -8 43 16 93 52 93 68 0 8 -12 30 -27 50 -14 20 -28 38 -29
39 -1 2 -20 -8 -41 -22 -45 -31 -125 -36 -161 -10 -54 38 -68 127 -29 185 41
61 122 70 192 23 28 -20 32 -18 60 30 30 50 26 66 -18 88 -78 39 -148 47 -217
24z"/>
<path d="M2165 2928 c-3 -7 -4 -117 -3 -243 l3 -230 62 -3 62 -3 3 128 3 128
24 -40 c14 -22 34 -56 44 -75 11 -19 35 -59 53 -87 l34 -53 60 0 60 0 1 208
c1 114 2 219 3 234 4 43 -6 49 -70 46 l-59 -3 -5 -120 -5 -120 -70 120 -71
120 -62 3 c-45 2 -64 -1 -67 -10z"/>
<path d="M2594 2927 c-2 -7 -3 -116 -2 -242 l3 -230 63 -3 62 -3 0 90 0 90 72
3 71 3 0 35 c-1 72 3 69 -70 72 l-68 3 -3 37 -3 37 83 3 83 3 3 58 3 57 -146
0 c-109 0 -147 -3 -151 -13z"/>
<path d="M3490 2248 l0 -608 -705 0 c-398 0 -705 -4 -705 -9 0 -5 7 -25 15
-44 8 -20 15 -62 15 -94 -1 -73 -34 -126 -104 -164 l-49 -27 27 -17 c15 -10
57 -26 94 -36 61 -18 113 -19 677 -19 638 0 660 2 751 45 52 25 143 114 170
166 50 99 54 138 54 500 l0 337 -40 99 c-23 54 -64 157 -92 228 -27 72 -56
144 -64 162 -8 17 -14 35 -14 40 0 5 -7 18 -15 29 -13 17 -14 -52 -15 -588z
m-716 -809 c20 -16 26 -29 26 -58 0 -48 -28 -75 -76 -74 -48 1 -74 27 -74 74
0 42 35 79 75 79 12 0 34 -9 49 -21z"/>
<path d="M1559 2820 c-47 -25 -85 -71 -100 -120 -24 -81 16 -144 200 -307 117
-105 152 -123 230 -123 53 0 65 4 96 31 88 77 66 180 -69 329 -97 107 -174
178 -208 193 -47 22 -104 21 -149 -3z"/>
<path d="M1556 2309 c-63 -55 -80 -116 -52 -184 25 -58 246 -266 320 -301 122
-57 226 -2 226 118 0 64 -23 111 -93 191 -42 48 -54 55 -95 61 -58 7 -138 49
-202 104 -27 23 -53 42 -59 42 -6 0 -26 -14 -45 -31z"/>
<path d="M1589 1857 c-39 -32 -69 -87 -69 -125 0 -50 31 -101 107 -172 173
-164 213 -190 294 -190 46 0 55 4 90 39 35 34 39 44 39 87 0 58 -25 109 -88
183 -35 40 -50 51 -74 51 -43 0 -145 52 -205 105 -28 25 -55 45 -60 45 -4 -1
-20 -11 -34 -23z"/>
</g>
</svg>
